PathFileType  4	(X/Y/Z) C:\Users\antoi\Documents\MyRepositories\mobilecap\ResultsAnalysis
DataRate	CameraRate	NumFrames	NumMarkers	Units	OrigDataRate	OrigDataStartFrame	OrigNumFrames
100.0	100.0	4	51	mm	100.0	94	125
Frame#	Time	r_knee			r_shank_antsup			r_ankle			r_calc			r_5meta			r_toe			L_knee			L_shank_antsup			L_ankle			L_calc			L_5meta			L_toe			r_sh2			r_sh3			r_sh4			L_sh2			L_sh3			r_thigh1			r_thigh2			r_thigh3			r_thigh4			r_thigh5			L_thigh1			L_thigh2			L_thigh3			L_thigh4			r.ASIS			r.PSIS			L.ASIS			L.PSIS			C7			R_Shoulder			L_Shoulder			R_Sternum			L_Sternum			R_humerus			R_elbow_med			R_elbow_lat			R_forearm			R_wrist_radius			R_wrist_ulna			L_humerus			L_elbow_med			L_elbow_lat			L_forearm			L_wrist_radius			L_wrist_ulna			R_HJC			L_HJC			R_HJC_reg			L_HJC_reg			
		X1	Y1	Z1	X2	Y2	Z2	X3	Y3	Z3	X4	Y4	Z4	X5	Y5	Z5	X6	Y6	Z6	X7	Y7	Z7	X8	Y8	Z8	X9	Y9	Z9	X10	Y10	Z10	X11	Y11	Z11	X12	Y12	Z12	X13	Y13	Z13	X14	Y14	Z14	X15	Y15	Z15	X16	Y16	Z16	X17	Y17	Z17	X18	Y18	Z18	X19	Y19	Z19	X20	Y20	Z20	X21	Y21	Z21	X22	Y22	Z22	X23	Y23	Z23	X24	Y24	Z24	X25	Y25	Z25	X26	Y26	Z26	X27	Y27	Z27	X28	Y28	Z28	X29	Y29	Z29	X30	Y30	Z30	X31	Y31	Z31	X32	Y32	Z32	X33	Y33	Z33	X34	Y34	Z34	X35	Y35	Z35	X36	Y36	Z36	X37	Y37	Z37	X38	Y38	Z38	X39	Y39	Z39	X40	Y40	Z40	X41	Y41	Z41	X42	Y42	Z42	X43	Y43	Z43	X44	Y44	Z44	X45	Y45	Z45	X46	Y46	Z46	X47	Y47	Z47	X48	Y48	Z48	X49	Y49	Z49	X50	Y50	Z50	X51	Y51	Z51	

94	0.93000000	1251.25639	471.98683	-137.86174	1262.72466	403.74080	-112.57537	1320.04853	102.90295	-164.39779	1281.97028	57.50363	-225.72532	1420.18892	72.20734	-108.93846	1470.96546	112.23776	-144.48808	997.45361	462.19265	-401.01732	1005.46106	393.65430	-399.87208	889.61455	104.01673	-360.88671	812.21022	79.89550	-316.61735	972.54194	38.32590	-377.87620	1024.29916	57.25045	-321.42744	1285.01470	293.41516	-114.65702	1196.70228	389.27611	-147.56025	1215.41948	275.74624	-156.93214	921.26094	422.80048	-416.03235	892.56680	305.65304	-412.33416	1194.63939	781.68098	-143.83127	1245.05249	681.03582	-133.93959	1208.79195	642.82851	-91.43233	1102.95669	742.62234	-87.72539	1148.90105	635.17715	-94.69498	1128.86189	730.58308	-439.40482	1103.96564	593.70255	-423.48801	1014.50443	747.68019	-456.88207	996.04545	608.39397	-428.45522	1156.77415	907.81923	-153.78553	974.96711	912.12932	-225.54631	1158.92361	900.69438	-410.95551	972.20194	915.58826	-331.06725	1049.60775	1388.79010	-304.72549	1078.70703	1334.57354	-142.38982	1126.19580	1327.16774	-455.15260	1154.82387	1297.95166	-268.38572	1158.67866	1295.78391	-312.81115	1038.27550	1102.19734	-51.90619	988.57054	1001.85416	-106.27719	996.77071	1023.89035	-37.23134	1034.33813	911.16278	-4.14569	1045.72087	792.36271	10.77166	1001.09329	789.59172	12.63647	1194.00075	1216.57507	-495.32413	1208.91202	992.79254	-482.28966	1231.88508	1013.12989	-534.79873	1337.06630	973.99635	-524.85663	1430.22535	894.98746	-491.78335	1416.93738	867.09633	-513.50418	1095.63126	827.97187	-179.55749	1097.69217	827.90940	-379.84328	1105.13560	813.74522	-191.67903	1100.68778	819.30619	-361.32742	
95	0.94000000	1262.97858	468.49185	-139.28192	1278.00277	401.19607	-114.30101	1352.55765	104.03379	-165.37693	1316.88454	56.23704	-226.69312	1454.50980	78.61837	-110.43012	1502.85461	121.26706	-146.10210	1003.92726	461.78804	-401.03643	1010.83744	393.17964	-399.95018	890.46537	105.16136	-361.09118	812.90709	81.53936	-316.82769	972.77524	38.32834	-377.94258	1024.79213	57.01381	-321.54871	1306.46712	292.41120	-116.22950	1212.98558	383.17985	-149.40968	1237.91001	270.67789	-158.80043	927.10484	423.56291	-416.15359	896.63113	306.82763	-412.51610	1208.22157	778.42749	-142.85045	1257.32931	676.88218	-133.75371	1220.25643	638.53350	-92.12751	1115.83413	739.76107	-87.66611	1160.25855	631.76815	-95.75133	1139.16371	728.19532	-439.49332	1112.17964	591.75387	-423.64960	1024.98173	747.11033	-456.45623	1004.51892	608.31603	-428.23667	1171.44694	905.54512	-153.26004	989.21175	909.95361	-224.53551	1171.99307	897.93674	-410.63192	985.71898	913.64885	-330.05043	1063.30997	1386.35149	-304.82720	1092.19113	1332.32794	-142.26370	1140.29122	1324.49933	-454.89930	1168.58361	1295.58725	-268.21840	1172.51055	1293.39298	-312.63792	1050.78290	1100.17572	-51.60052	1001.19303	999.88509	-106.16161	1008.93601	1022.07563	-37.07471	1045.27871	909.27411	-3.06949	1055.42057	790.46436	12.54155	1010.82996	787.97058	13.79083	1209.32391	1214.91632	-494.58879	1227.19433	991.36846	-482.20404	1250.35348	1012.17378	-534.44142	1356.43731	976.10813	-523.01096	1451.66113	900.10557	-488.47330	1439.37459	871.79654	-510.36864	1109.79507	825.74518	-178.87452	1110.88007	825.41045	-379.16771	1119.66659	810.93686	-191.02893	1114.04748	816.88094	-360.76672	
96	0.95000000	1274.97536	465.12640	-140.54644	1293.53931	398.89964	-115.98014	1382.84726	105.66833	-166.42715	1349.04369	55.49367	-227.39664	1486.67028	85.32837	-112.71204	1532.27448	130.15425	-148.94939	1010.99172	461.25081	-401.05955	1016.85890	392.53935	-400.03587	891.51366	106.41747	-361.32764	813.71139	83.41734	-317.05889	973.04383	38.33379	-377.98961	1025.32626	56.71935	-321.68263	1327.38253	291.76385	-117.77493	1229.37524	377.75238	-150.73200	1259.63681	266.27732	-160.24401	933.64345	424.29866	-416.29271	901.21645	308.04903	-412.71720	1222.24661	775.26419	-141.90667	1270.10112	672.88512	-133.41206	1232.19109	634.45656	-92.55956	1129.24813	737.11138	-87.43436	1172.20182	628.59353	-96.48292	1149.70006	725.80609	-439.70055	1120.84168	589.76855	-423.98228	1035.73090	746.39202	-456.07020	1013.44851	608.03584	-428.22242	1186.24686	903.17114	-152.89419	1003.60648	907.73892	-223.36985	1185.12349	895.12541	-410.42272	999.35566	911.53370	-328.90471	1077.08629	1383.82959	-304.77109	1105.73663	1329.95555	-142.00325	1154.47648	1321.71088	-454.50323	1182.41855	1293.15102	-267.94282	1186.42787	1290.94155	-312.35784	1063.56750	1097.99615	-51.23232	1014.13864	997.71919	-106.02649	1021.41526	1020.06278	-36.87041	1056.57670	907.21300	-1.95920	1065.54219	788.40297	14.32118	1020.97648	786.19509	14.95343	1224.68147	1213.08435	-493.68641	1245.28670	989.77162	-482.00559	1268.57543	1011.06781	-534.04310	1375.39517	977.92761	-521.09686	1472.40965	904.75910	-485.15260	1461.12325	876.13291	-507.25282	1124.17370	823.43242	-178.21650	1124.11196	822.82495	-378.51108	1134.24751	808.23131	-190.39548	1127.41024	814.33719	-360.19734	
97	0.96000000	1287.54455	462.06257	-141.69343	1309.46205	396.98667	-117.59914	1410.69370	107.43546	-167.52069	1378.13470	54.90293	-227.71257	1516.45886	91.91884	-115.75711	1559.12245	138.36806	-153.05017	1018.69379	460.59972	-401.05674	1023.56290	391.73852	-400.11242	892.78605	107.82963	-361.57686	814.66788	85.59510	-317.28919	973.36185	38.36222	-378.00147	1025.88210	56.34682	-321.81046	1347.73500	291.41554	-119.26376	1245.91416	373.13934	-151.48375	1280.51737	262.63009	-161.11848	940.93279	425.02608	-416.41521	906.35279	309.34398	-412.89465	1236.83312	772.28553	-141.09478	1283.53768	669.17708	-133.06179	1244.91057	630.77331	-92.73083	1143.39267	734.74465	-87.00508	1185.02635	625.74746	-96.82025	1160.53074	723.44940	-440.02683	1130.01044	587.76453	-424.50215	1046.79023	745.54958	-455.71343	1022.87993	607.55019	-428.34005	1201.15462	900.78289	-152.74162	1018.13428	905.52171	-222.04251	1198.33175	892.32448	-410.35183	1013.14283	909.25756	-327.60495	1090.96454	1381.27782	-304.52617	1119.38826	1327.49597	-141.58729	1168.72479	1318.88587	-453.96478	1196.34859	1290.67799	-267.55335	1200.45826	1288.47927	-311.96686	1076.65217	1095.68757	-50.79772	1027.43124	995.38479	-105.85187	1034.22190	1017.88681	-36.61661	1068.23252	905.01179	-0.82391	1076.09668	786.20709	16.09557	1031.52986	784.29210	16.09588	1240.03265	1211.16643	-492.62183	1263.13396	988.08246	-481.70822	1286.50111	1009.88743	-533.59348	1393.92148	979.47696	-519.12724	1492.43152	908.92275	-481.86153	1482.14752	880.07884	-504.18930	1138.79744	821.10123	-177.59131	1137.40873	820.20274	-377.87773	1148.85446	805.72061	-189.83214	1140.82865	811.73199	-359.65741	
